<svg xmlns="http://www.w3.org/2000/svg" viewBox="0 0 41 41" width="820" height="820" shape-rendering="crispEdges" role="img" aria-label="丸事星期二示範點餐頁二維碼"><rect width="41" height="41" fill="#ffffff"/><path d="M4 4h7v1h-7zM14 4h5v1h-5zM22 4h1v1h-1zM30 4h7v1h-7zM4 5h1v1h-1zM10 5h1v1h-1zM12 5h2v1h-2zM15 5h1v1h-1zM24 5h3v1h-3zM28 5h1v1h-1zM30 5h1v1h-1zM36 5h1v1h-1zM4 6h1v1h-1zM6 6h3v1h-3zM10 6h1v1h-1zM12 6h1v1h-1zM14 6h1v1h-1zM18 6h3v1h-3zM24 6h4v1h-4zM30 6h1v1h-1zM32 6h3v1h-3zM36 6h1v1h-1zM4 7h1v1h-1zM6 7h3v1h-3zM10 7h1v1h-1zM12 7h2v1h-2zM15 7h2v1h-2zM18 7h1v1h-1zM20 7h2v1h-2zM23 7h3v1h-3zM27 7h2v1h-2zM30 7h1v1h-1zM32 7h3v1h-3zM36 7h1v1h-1zM4 8h1v1h-1zM6 8h3v1h-3zM10 8h1v1h-1zM13 8h1v1h-1zM16 8h5v1h-5zM22 8h7v1h-7zM30 8h1v1h-1zM32 8h3v1h-3zM36 8h1v1h-1zM4 9h1v1h-1zM10 9h1v1h-1zM13 9h1v1h-1zM15 9h2v1h-2zM19 9h1v1h-1zM21 9h2v1h-2zM24 9h3v1h-3zM30 9h1v1h-1zM36 9h1v1h-1zM4 10h7v1h-7zM12 10h1v1h-1zM14 10h1v1h-1zM16 10h1v1h-1zM18 10h1v1h-1zM20 10h1v1h-1zM22 10h1v1h-1zM24 10h1v1h-1zM26 10h1v1h-1zM28 10h1v1h-1zM30 10h7v1h-7zM12 11h1v1h-1zM14 11h1v1h-1zM16 11h1v1h-1zM19 11h2v1h-2zM24 11h1v1h-1zM26 11h3v1h-3zM4 12h1v1h-1zM10 12h1v1h-1zM12 12h1v1h-1zM16 12h3v1h-3zM20 12h2v1h-2zM26 12h1v1h-1zM28 12h3v1h-3zM33 12h3v1h-3zM4 13h2v1h-2zM8 13h1v1h-1zM11 13h3v1h-3zM15 13h3v1h-3zM19 13h1v1h-1zM21 13h4v1h-4zM26 13h2v1h-2zM32 13h3v1h-3zM4 14h1v1h-1zM10 14h1v1h-1zM12 14h2v1h-2zM17 14h5v1h-5zM25 14h2v1h-2zM32 14h1v1h-1zM34 14h2v1h-2zM7 15h3v1h-3zM11 15h2v1h-2zM16 15h2v1h-2zM24 15h1v1h-1zM28 15h2v1h-2zM31 15h4v1h-4zM36 15h1v1h-1zM5 16h1v1h-1zM8 16h1v1h-1zM10 16h1v1h-1zM13 16h3v1h-3zM17 16h1v1h-1zM22 16h3v1h-3zM28 16h1v1h-1zM30 16h2v1h-2zM6 17h1v1h-1zM8 17h2v1h-2zM12 17h2v1h-2zM17 17h1v1h-1zM22 17h3v1h-3zM26 17h2v1h-2zM30 17h2v1h-2zM35 17h2v1h-2zM5 18h1v1h-1zM7 18h1v1h-1zM9 18h4v1h-4zM14 18h4v1h-4zM19 18h2v1h-2zM25 18h2v1h-2zM29 18h2v1h-2zM32 18h4v1h-4zM4 19h1v1h-1zM6 19h2v1h-2zM11 19h2v1h-2zM17 19h1v1h-1zM20 19h1v1h-1zM28 19h2v1h-2zM32 19h3v1h-3zM36 19h1v1h-1zM4 20h1v1h-1zM6 20h9v1h-9zM19 20h1v1h-1zM21 20h1v1h-1zM24 20h1v1h-1zM26 20h4v1h-4zM31 20h2v1h-2zM36 20h1v1h-1zM4 21h6v1h-6zM11 21h3v1h-3zM15 21h1v1h-1zM18 21h6v1h-6zM27 21h1v1h-1zM30 21h1v1h-1zM33 21h2v1h-2zM36 21h1v1h-1zM4 22h2v1h-2zM10 22h1v1h-1zM13 22h1v1h-1zM15 22h1v1h-1zM17 22h3v1h-3zM23 22h1v1h-1zM25 22h4v1h-4zM30 22h2v1h-2zM33 22h4v1h-4zM4 23h1v1h-1zM7 23h3v1h-3zM12 23h4v1h-4zM18 23h3v1h-3zM23 23h2v1h-2zM27 23h1v1h-1zM32 23h3v1h-3zM36 23h1v1h-1zM4 24h2v1h-2zM8 24h5v1h-5zM14 24h3v1h-3zM19 24h1v1h-1zM22 24h1v1h-1zM26 24h1v1h-1zM28 24h2v1h-2zM31 24h3v1h-3zM4 25h2v1h-2zM13 25h1v1h-1zM15 25h4v1h-4zM21 25h3v1h-3zM25 25h3v1h-3zM31 25h3v1h-3zM4 26h1v1h-1zM6 26h1v1h-1zM8 26h1v1h-1zM10 26h1v1h-1zM14 26h1v1h-1zM16 26h1v1h-1zM18 26h1v1h-1zM24 26h1v1h-1zM26 26h1v1h-1zM30 26h1v1h-1zM33 26h1v1h-1zM35 26h1v1h-1zM4 27h1v1h-1zM7 27h1v1h-1zM11 27h2v1h-2zM14 27h4v1h-4zM19 27h2v1h-2zM22 27h1v1h-1zM24 27h1v1h-1zM29 27h2v1h-2zM34 27h3v1h-3zM4 28h2v1h-2zM9 28h3v1h-3zM14 28h1v1h-1zM20 28h1v1h-1zM26 28h1v1h-1zM28 28h6v1h-6zM36 28h1v1h-1zM12 29h1v1h-1zM14 29h2v1h-2zM17 29h1v1h-1zM19 29h5v1h-5zM26 29h3v1h-3zM32 29h1v1h-1zM34 29h1v1h-1zM36 29h1v1h-1zM4 30h7v1h-7zM14 30h1v1h-1zM19 30h1v1h-1zM21 30h1v1h-1zM27 30h2v1h-2zM30 30h1v1h-1zM32 30h1v1h-1zM34 30h2v1h-2zM4 31h1v1h-1zM10 31h1v1h-1zM14 31h1v1h-1zM16 31h1v1h-1zM18 31h2v1h-2zM21 31h2v1h-2zM24 31h1v1h-1zM27 31h2v1h-2zM32 31h5v1h-5zM4 32h1v1h-1zM6 32h3v1h-3zM10 32h1v1h-1zM13 32h1v1h-1zM20 32h1v1h-1zM23 32h1v1h-1zM26 32h1v1h-1zM28 32h6v1h-6zM35 32h1v1h-1zM4 33h1v1h-1zM6 33h3v1h-3zM10 33h1v1h-1zM13 33h1v1h-1zM21 33h3v1h-3zM27 33h3v1h-3zM31 33h3v1h-3zM35 33h2v1h-2zM4 34h1v1h-1zM6 34h3v1h-3zM10 34h1v1h-1zM13 34h2v1h-2zM16 34h4v1h-4zM21 34h1v1h-1zM23 34h4v1h-4zM28 34h2v1h-2zM31 34h2v1h-2zM35 34h2v1h-2zM4 35h1v1h-1zM10 35h1v1h-1zM14 35h1v1h-1zM18 35h1v1h-1zM22 35h1v1h-1zM26 35h1v1h-1zM31 35h4v1h-4zM4 36h7v1h-7zM12 36h1v1h-1zM14 36h2v1h-2zM17 36h1v1h-1zM19 36h1v1h-1zM21 36h4v1h-4zM27 36h3v1h-3zM31 36h1v1h-1zM34 36h2v1h-2z" fill="#111111"/></svg>